<?xml version="1.0" encoding="utf-8"?>
<!-- Generator: Adobe Illustrator 21.0.2, SVG Export Plug-In . SVG Version: 6.00 Build 0)  -->
<svg version="1.1" id="Layer_1" xmlns="http://www.w3.org/2000/svg" xmlns:xlink="http://www.w3.org/1999/xlink" x="0px" y="0px"
	 viewBox="0 0 1845.6 283.9" style="enable-background:new 0 0 1845.6 283.9;" xml:space="preserve">
<style type="text/css">
	.st0{fill:#020202;}
</style>
<g>
	<path class="st0" d="M27.5,279.2H3.7c-2.2,0-3.9-1.9-3.7-4.1l0,0c2.7-23.3,5.3-44.3,8-67.6c2.8-23.4,5.5-46.8,8.2-70.2
		c2.8-23.5,5.5-47,8.3-70.5c1.9-15.9,3.7-31.7,5.6-47.5c0.3-2.7,0.8-5.5,1.8-8c1.5-4,4.5-5.8,8.7-5.8c3.8,0,6.3,1.6,7.4,5.3
		c2.2,7.6,4.4,15.2,6.5,22.8c7.1,24.9,12.9,50.3,22.5,74.5c4.7,11.8,10,23.2,18.8,32.7c14.2,15.4,34.2,15.1,48.1-0.7
		c9.5-10.8,15.5-23.6,19.6-37.1c7.7-25.1,14.7-50.4,21.9-75.6c1.4-4.9,2.5-9.8,4-14.6c1.8-5.5,4.3-7.4,8.9-7.2
		c4.5,0.2,7.7,2.9,8.7,8c1,5.1,1.5,10.2,2.1,15.4c3.1,25.9,6.1,51.8,9.1,77.7c3.2,27.2,6.3,54.4,9.5,81.6
		c3.2,27.2,6.5,54.4,9.7,81.6l0.5,5.2c0.2,2.2-1.5,4.1-3.7,4.1l-23,0c-1.8,0-3.4-1.3-3.7-3.1c-8.3-50.4-17.3-101.5-25.7-152.9
		c-0.1-0.9-1.4-1-1.7-0.1c-0.9,2.7-1.7,5.1-2.6,7.5c-6.5,16.4-12.9,33-19.8,49.2c-3.7,8.5-9.2,16-16.4,22.1
		c-13.8,11.6-33.8,10.5-46.4-2.5c-9.5-9.9-15.5-21.8-20.5-34.4c-5.5-13.7-10.6-27.5-15.9-41.2l0,0l-2.3,0.2
		c-8,49.3-16.1,98.6-24.1,148l-0.8,4.2C30.8,277.9,29.3,279.2,27.5,279.2z"/>
	<path class="st0" d="M517.9,248c0.6,3.4,1.2,6.8,1.8,10.1c0.7,3.6-1.6,7.2-5.2,8c-3.8,0.9-7.7,1.8-11.5,2.5
		c-24.1,4.4-48.2,9-72.4,12.9c-15.2,2.5-30.6,3.2-46,0.5c-18.2-3.3-29.9-13.7-33.3-31.9c-2.1-11.2-3.2-22.7-3.6-34
		c-0.7-20.5-1.1-41-0.7-61.4c0.6-35.4,1.8-70.8,3.1-106.2c0.2-6.3,1.5-12.7,3.2-18.8c3.5-12.9,12.4-19.7,25.6-21.3
		c10.3-1.3,20.4-0.2,30.6,1c23.2,2.7,46.3,5.5,69.5,8.3c7.6,0.9,15.2,2,22.8,3c3.5,0.5,6.1,3.4,6.1,6.9v8.7c0,3.9-3.2,7-7,7
		c-2.7,0-5.3,0-8,0.1c-23.4,0.6-46.9,1.2-70.3,2.2c-6,0.2-12,1.5-17.9,2.8c-15.2,3.3-23.3,13.5-26.2,28.1c-1.5,7.5-1.8,15.3-2.1,23
		c-0.3,7-0.2,14-0.1,21.2c0,3.6,2.8,6.6,6.4,6.9c1.8,0.1,3.5,0.3,5.3,0.4c28.4,1.8,56.9,3.6,85.3,5.6c4.2,0.3,8.3,1.1,12.4,1.8
		c2.9,0.5,4.7,2.4,4.9,5.4c0.3,3.3-0.6,6.2-3.9,7.2c-5.5,1.6-11,3.2-16.6,4c-21.4,2.9-42.7,5.8-63.5,11.9
		c-7.9,2.3-14.7,6.4-20.7,11.9c-4.8,4.4-6.7,10.3-7.4,16.5c-1.1,8.9-0.9,17.8,1.2,26.6c2.2,9,7.5,15.5,15.7,19.7
		c12,6.1,25,8.1,38.1,7.8c20.8-0.5,41.5-1.8,62.3-2.9c4.8-0.2,9.7-0.7,14.6-1.1C514,242,517.3,244.5,517.9,248z"/>
	<path class="st0" d="M1646.4,279c-5.3-2-10.6-4-16-6.1c-3.9-1.5-5.9-5.8-4.5-9.7c0.9-2.6,1.8-5.2,2.8-7.7
		c26.4-68.4,52.7-136.8,79.2-205.2c4.9-12.6,10.3-25,15.7-37.4c1.4-3.2,3.2-6.3,5.5-8.9c4.5-5.2,11-5.4,15.6-0.3
		c2.8,3.1,5.1,7,6.6,10.9c18.6,47.2,37.5,94.4,55.4,141.9c11.3,29.9,21.2,60.3,31.4,90.6c2.8,8.1,4.7,16.5,6.8,24.8
		c1.6,6.2-0.4,10-5.5,11.6c-3.2,1-5.8-0.1-7.7-2.4c-2.7-3.2-5.2-6.6-7.2-10.2c-9-15.6-17.9-31.3-26.8-47
		c-9.3-16.3-23.4-24.3-42-24.4c-12.6-0.1-25.1,0.1-37.7,0.2c-16.4,0.1-27.9,7.9-35.2,22.4c-9.4,18.7-15.4,30.6-24.9,49.2
		c-0.2,0.5-1.1,2.2-2.1,4.1C1654.2,278.8,1650.1,280.4,1646.4,279z M1766.1,175.5c5.2,0,8.9-5.2,7.2-10.2
		c-12.8-36.4-25.4-72.4-38.2-108.8c-0.8,1.1-1,1.4-1.1,1.7c-10.5,27.9-21.1,55.7-31.2,83.7c-1.8,4.8-2,10.4-2,15.6
		c-0.1,6,2.9,10.9,8.3,13.7c3.3,1.7,6.9,3.2,10.5,3.5c9.4,0.7,18.9,0.7,28.4,0.8C1753.9,175.5,1759.8,175.5,1766.1,175.5z"/>
	<path class="st0" d="M1415.6,6.5c18.8,0,42.2-0.2,65.7,0.2c5.3,0.1,10.9,1.6,15.9,3.5c9.6,3.7,13.1,10.9,10.2,20.9
		c-1.6,5.2-3.9,10.3-6.7,15c-33.4,56.7-67,113.2-100.3,169.9c-2.4,4.2-4,9-5.2,13.8c-1.3,5.7,1.1,10.8,6.4,13.1
		c4.4,2,9.4,3.4,14.2,3.9c23,2.1,46.1,3.7,69.1,5.5c13.2,1,26.3,2.1,39.5,3.3c2,0.2,4.2,0.8,6,1.7c4.9,2.5,5.7,8.8,1.3,12
		c-2.8,2-6.2,3.6-9.6,4c-11.7,1.6-23.3,3.2-35.1,3.9c-28.7,1.5-57.4,2.8-86.1,3.5c-11.2,0.3-22.4-1.1-33.6-2
		c-2.6-0.2-5.2-1.1-7.6-2.2c-10.9-4.7-15.7-13.5-12.1-24.9c2.5-8,6.4-15.6,10.2-23.2c15.3-30.6,30.8-61.1,46.2-91.6
		c11.4-22.7,22.9-45.3,34.2-68.1c1.7-3.5,2.9-7.4,3.6-11.2c1.4-7.8-3.2-15-11.1-16.5c-8.5-1.6-17.2-2.5-25.8-3.5
		c-22.1-2.4-44.2-4.7-66.3-7c-4-0.4-8.2-0.7-12.1-1.7c-2.7-0.7-5.4-2-7.5-3.9c-4.2-3.8-3.2-9.3,1.9-11.9c6-3.1,12.7-2.8,19.1-3.2
		C1363.7,8.6,1387.4,7.7,1415.6,6.5z"/>
	<path class="st0" d="M776.4,24v28.8c0,5.7-6.3,9.1-11.1,6c0,0,0,0,0,0c-17.2-11.3-27.3-16.5-47-22.9c-15-4.9-30.3-7.5-46.1-4.2
		c-6.2,1.3-12,3.6-16.9,7.8c-7.7,6.6-9.8,17.9-5.5,29.2c3.7,9.6,10.1,17.4,17.7,23.9c19.4,16.7,39.2,33.1,58.8,49.6
		c13,11,25.6,22.5,37,35.3c22.8,25.8,14.5,60.6,0,76.6c-9.9,11-22.5,18-36.5,22.2c-29.7,9-58.3,6.3-85.2-9.6
		c-4.7-2.8-8.7-6.7-12.7-10.4c-1.5-1.4-2.7-3.5-3.4-5.5c-2.2-6.2,2.3-11.7,8.7-10.5c3.7,0.7,7.3,2.3,10.9,3.8
		c9.2,3.8,18.2,8.3,28.2,9.9c15.2,2.4,29.7,0.4,43.8-5.8c23.2-10.2,27.1-37.8,9.5-54.4c-10.1-9.5-21.1-18-32-26.5
		c-16.4-12.8-33.3-24.9-49.5-38c-10.1-8.1-19.3-17.4-26-28.8c-12.2-20.7-10.1-50.6,4.6-68c6.5-7.7,15-12.4,24.1-16.3
		C667.8,7.6,689.2,5,711.1,6.1c20.7,1.1,32.6,3,52.4,8.8c0.9,0.3,4.5,1.3,7.8,2.3C774.4,18,776.4,20.8,776.4,24z"/>
	<path class="st0" d="M984.5,279.2h-7.8c-3.5,0-6.4-2.7-6.7-6.2c-0.4-5.1-0.7-10.2-1.1-15.2c-1.9-28-3.8-56-5.7-83.9
		c-1.8-27.2-3.6-54.4-5.6-81.7c-0.7-9.8-1.5-19.5-2.7-29.2c-1.2-9.2-6.4-16.3-15.1-19.2c-9-3-18.4-4.8-27.8-6.7
		c-11.1-2.2-22.3-4-33.4-6.1c-2-0.4-4.1-1.1-5.9-2c-3.5-1.7-4.5-4.9-4.3-8.6c0.2-3.3,2.3-5.4,5.1-6.2c4.1-1.1,8.4-2.1,12.6-2.2
		c25.5-0.7,51.1-1.4,76.6-1.6c25-0.2,50,0.1,74.9,0.4c13.2,0.2,26.4,0.9,39.6,1.6c2.5,0.1,5,0.9,7.3,1.7c3.2,1.1,5.2,3.4,5.2,6.9
		c-0.1,3.5-1.2,6.7-4.8,7.9c-4,1.3-8.2,2.4-12.4,3.2c-14.7,2.8-29.5,5.3-44.2,8c-0.6,0.1-1.5,0.3-2,0.4
		c-15.7,3.9-21.5,10.1-23.5,26.7c-1.5,12.1-2,24.3-2.7,36.5c-1.6,28-3,56-4.4,84c-1.3,24.7-2.6,49.4-3.8,74.2
		c-0.2,3.6-0.4,7.2-0.6,10.9C991,276.4,988.1,279.2,984.5,279.2z"/>
	<path class="st0" d="M1206.5,279.1h-6.7c-3.7,0-6.7-2.8-6.9-6.5c-0.3-4.1-0.5-8.1-0.8-12.2c-1.7-30.4-3.5-60.8-5.2-91.3
		c-1.6-29.1-3.2-58.2-4.8-87.3c-0.7-12.2-1.6-24.4-1.5-36.6c0.1-7.5,1.5-15.1,3.5-22.3c2.3-8.2,7.8-13.8,16.9-14.4
		c9.4-0.6,17.1,3.9,20.4,13.1c2.3,6.4,3.9,13.4,4,20.2c0.2,13.7-0.7,27.5-1.4,41.2c-1.3,25.3-2.8,50.5-4.2,75.8
		c-1.4,25.7-2.9,51.4-4.3,77.1c-0.8,13.2-1.1,18.8-1.8,32c0,0.5-0.2,2.6-0.3,4.8C1213.2,276.3,1210.2,279.1,1206.5,279.1z"/>
</g>
</svg>
